<svg xmlns="http://www.w3.org/2000/svg" viewBox="0 0 2200 1361" preserveAspectRatio="xMidYMid" width="2200" height="1361" style="shape-rendering: auto; display: block; background: rgb(255, 255, 255);" xmlns:xlink="http://www.w3.org/1999/xlink"><g style="transform:translate(1100.0px,680.5px) scale(1,-1) translate(-1100.0px,-680.5px)"><defs>
<linearGradient y2="1" y1="0" x2="0" x1="0" id="lg-bk-2by998twmg8">
  <stop offset="0" stop-opacity="0" stop-color="#1c79c0"></stop>
  <stop offset="0.41250000000000003" stop-opacity="1" stop-color="#1c79c0"></stop>
</linearGradient>
<linearGradient y2="1" y1="0" x2="0" x1="0" id="lg-n2c88aimwtj">
  <stop offset="0" stop-color="#1c79c0"></stop>
  <stop offset="0.37" stop-color="#002d70"></stop>
  <stop offset="1" stop-color="#0389ff"></stop>
</linearGradient>
</defs>
<rect fill="url(#lg-bk-2by998twmg8)" height="1361" width="2200" y="0" x="0"></rect><g>
<path opacity="0.4" fill="url(#lg-n2c88aimwtj)" d="M0 449.13
C1100 449.13 1100 795.6406 2200 795.6406
C3300 795.6406 3300 449.13 4400 449.13
C5500 449.13 5500 795.6406 6600 795.6406
C7700 795.6406 7700 449.13 8800 449.13
L8800 1361 L0 1361 Z">
  <animateTransform values="-4400 0;0 0" begin="0s" keyTimes="0;1" repeatCount="indefinite" dur="10s" type="translate" attributeName="transform"></animateTransform>
</path>
<animateTransform values="0 0;0 10; 0" begin="0s" keyTimes="0;0.5;1" keySplines="0.3 0 0.7 1;0.3 0 0.7 1" calcMode="spline" repeatCount="indefinite" dur="10s" type="translate" attributeName="transform"></animateTransform>
</g><g>
<path opacity="0.4" fill="url(#lg-n2c88aimwtj)" d="M0 449.13
C1100 449.13 1100 795.6406 2200 795.6406
C3300 795.6406 3300 449.13 4400 449.13
C5500 449.13 5500 795.6406 6600 795.6406
C7700 795.6406 7700 449.13 8800 449.13
L8800 1361 L0 1361 Z">
  <animateTransform values="-4400 0;0 0" begin="-0.46666666666666673s" keyTimes="0;1" repeatCount="indefinite" dur="10s" type="translate" attributeName="transform"></animateTransform>
</path>
<animateTransform values="0 0;0 10; 0" begin="-3.3333333333333335s" keyTimes="0;0.5;1" keySplines="0.3 0 0.7 1;0.3 0 0.7 1" calcMode="spline" repeatCount="indefinite" dur="10s" type="translate" attributeName="transform"></animateTransform>
</g><g>
<path opacity="0.4" fill="url(#lg-n2c88aimwtj)" d="M0 449.13
C1100 449.13 1100 795.6406 2200 795.6406
C3300 795.6406 3300 449.13 4400 449.13
C5500 449.13 5500 795.6406 6600 795.6406
C7700 795.6406 7700 449.13 8800 449.13
L8800 1361 L0 1361 Z">
  <animateTransform values="-4400 0;0 0" begin="-0.9333333333333335s" keyTimes="0;1" repeatCount="indefinite" dur="10s" type="translate" attributeName="transform"></animateTransform>
</path>
<animateTransform values="0 0;0 10; 0" begin="-6.666666666666667s" keyTimes="0;0.5;1" keySplines="0.3 0 0.7 1;0.3 0 0.7 1" calcMode="spline" repeatCount="indefinite" dur="10s" type="translate" attributeName="transform"></animateTransform>
</g><g></g></g><!-- [ldio] generated by https://loading.io --></svg>