<?xml version="1.0" encoding="UTF-8"?>
<svg width="512" height="512" viewBox="0 0 512 512" fill="none" xmlns="http://www.w3.org/2000/svg">
  <path d="M128 165H263C298 165 320 142 320 109C320 77 296 53 266 53C235 53 212 77 209 109" stroke="#14B8F4" stroke-width="32" stroke-linecap="round" stroke-linejoin="round"/>
  <path d="M32 229H421C454 229 480 203 480 170C480 138 456 117 425 117C393 117 371 141 371 171" stroke="#14B8F4" stroke-width="32" stroke-linecap="round" stroke-linejoin="round"/>
  <path d="M80 293H347C385 293 416 323 416 361C416 399 387 427 352 427C316 427 288 397 288 350" stroke="#14B8F4" stroke-width="32" stroke-linecap="round" stroke-linejoin="round"/>
</svg>
