<?xml version="1.0" standalone="no"?>
<!DOCTYPE svg PUBLIC "-//W3C//DTD SVG 20010904//EN"
 "http://www.w3.org/TR/2001/REC-SVG-20010904/DTD/svg10.dtd">
<svg version="1.0" xmlns="http://www.w3.org/2000/svg"
 width="512pt" height="512pt" viewBox="0 0 512 512"
 preserveAspectRatio="xMidYMid meet">
<g transform="translate(0.000000,512.000000) scale(0.100000,-0.100000)"
fill="#000000" stroke="none">
<path d="M1120 3840 l0 -200 1280 0 1280 0 0 200 0 200 -1280 0 -1280 0 0
-200z"/>
<path d="M3680 2560 c0 -3 -576 -579 -1280 -1280 l-1280 -1275 0 -202 0 -203
203 0 202 0 1278 1278 1277 1277 0 203 0 202 -200 0 c-110 0 -200 -1 -200 -3z"/>
<path d="M1120 1280 l0 -200 1280 0 1280 0 0 200 0 200 -1280 0 -1280 0 0
-200z"/>
</g>
</svg>
